<?xml version="1.0" encoding="utf-8"?>
<!-- Generator: Adobe Illustrator 21.0.0, SVG Export Plug-In . SVG Version: 6.00 Build 0)  -->
<svg version="1.1" id="Layer_1" xmlns="http://www.w3.org/2000/svg" xmlns:xlink="http://www.w3.org/1999/xlink" x="0px" y="0px"
	 width="100px" height="141px" viewBox="0 0 100 141" style="enable-background:new 0 0 100 141;" xml:space="preserve">
<style type="text/css">
	.st0{opacity:0.3;}
</style>
<path d="M99.7,30.7L69.3,0.3C69.1,0.1,68.8,0,68.5,0H1.1C0.5,0,0,0.5,0,1.1v138.7c0,0.6,0.5,1.1,1.1,1.1c0,0,0,0,0,0h97.7
	c0.6,0,1.1-0.5,1.1-1.1c0,0,0,0,0,0V31.5C100,31.2,99.9,30.9,99.7,30.7z M69.7,30.3V3.9l26.5,26.5H69.7z"/>
<polygon class="st0" points="69.7,3.9 96.1,30.3 69.7,30.3 "/>
</svg>
