<svg version="1.1"
     xmlns="http://www.w3.org/2000/svg"
     xmlns:xlink="http://www.w3.org/1999/xlink"
     viewBox="0 0 400 200">

    <style type="text/css">
        .area{fill: none}
        .underlay{fill: rgba(0, 0, 0, .3)}
    </style>

    <symbol id="logo-studio" viewBox="0 0 70 97">
        <polygon points="0 11 51.74 0 55.69 18.59 23.49 25.33 26.53 40.12 58.79 33.16 62.76 51.84 30.48 58.7 33.58 73.28 65.88 66.51 69.81 85 18.09 96.1 0 11"/>
    </symbol>


    <symbol id="cross" viewBox="0 0 13 13">
        <polygon points="13,2 11,0 6.5,4.5 2,0 0,2 4.5,6.5 0,11 2,13 6.5,8.5 11,13 13,11 8.5,6.5"/>
    </symbol>
    <symbol id="arrow" viewBox="0 0 10 10">
        <polygon points="10,1.6 9.2,1 5,6.9 0.8,1 0,1.6 5,8.7"/>
    </symbol>

    <symbol id="arrow-narrow" viewBox="0 0 5 10">
        <polygon points="5,5 0.8,0, 0,0.8 3.4,5 0,9.2 0.8,10"/>
    </symbol>

    <symbol id="clock" viewBox="0 0 22 22">
        <circle cx="11" cy="11" r="9.5"
            fill="transparent"
            stroke="currentColor"
            stroke-width="2"/>
        <path d="M10 5 v 7 h 6"
            fill="transparent"
            stroke-width="2"
            stroke="currentColor" />

    </symbol>


    <symbol id="logo-vk" viewBox="0 0 100 100">
        <rect class="area" width="100" height="100" />
        <path fill="currentColor"
            d="M53.6,70S56,70,56,67c0-4.3,0-5,2-6s6.5,5.2,9.7,7.9C69,70,72,70,72,70H82s4,0,2-4c-.2-.3-1.7-2.7-7-8-5-5-5-5,3-15a42.29,42.29,0,0,0,4-6c1-2,.2-4-2-4H70c-1,0-1.8,1.4-1.8,1.4s-1.8,4.2-3.8,8c-3.4,6.5-6.5,8.3-7.2,7.7A4.72,4.72,0,0,1,56,47V38c-.1-3.9-.5-5.3-2-6a16.17,16.17,0,0,0-13.6.1c-1.2.6-2,1.9-1.4,1.9,4,0,4,4,4,5v8a4.45,4.45,0,0,1-1.5,3.2c-1.2,1-3.3-.8-7.4-7.8-2.1-3.6-2.7-5.9-3.7-7.6A2.91,2.91,0,0,0,28,33H18c-1.2,0-2.6.5-1.8,2.5.1.2,7.7,17.9,16.3,26.9,7.9,8.3,17,7.7,17,7.7l4.1-.1Z" transform="translate(0 0)"/>
    </symbol>
    <symbol id="logo-vk-box" viewBox="0 0 100 100">
        <use xlink:href="#logo-vk"
            width="100" height="100" />
    </symbol>


    <symbol id="logo-fb-f" viewBox="0 0 100 100">
        <rect class="area" width="100" height="100" />
        <path d="M69,100V61.27H82l1.95-15.09H69V36.55c0-4.37,1.21-7.35,7.48-7.35h8V15.7a106.94,106.94,0,0,0-11.65-.59c-11.52,0-19.41,7-19.41,19.95V46.18h-13V61.27h13V100Z" />
    </symbol>
    <symbol id="logo-fb" viewBox="0 0 272 272">
        <rect class="area" width="272" height="272" />
        <path fill="currentColor"
            d="M257,0H15C6.7,0,0,6.7,0,15v242c0,8.3,6.7,15,15,15h130.3V166.7h-35.4v-41.1h35.4V95.3c0-35.1,21.5-54.3,52.8-54.3c15,0,27.9,1.1,31.7,1.6v36.7l-21.7,0c-17,0-20.3,8.1-20.3,20v26.2h40.6l-5.3,41.1h-35.4V272H257c8.3,0,15-6.7,15-15V15C272,6.7,265.3,0,257,0z"/>
    </symbol>
    <symbol id="logo-fb-box" viewBox="0 0 100 100">
        <use xlink:href="#logo-fb"
            width="64" height="64" x="18" y="18" />
    </symbol>


    <symbol id="logo-twitter" viewBox="0 0 250 205">
        <rect class="area" width="250" height="205" />
        <path fill="currentColor"
            d="M78.5,203.2c94.3,0,145.9-78.2,145.9-145.9,0-2.2,0-4.4-.1-6.6a104.47,104.47,0,0,0,25.6-26.6,103.93,103.93,0,0,1-29.5,8.1A51.59,51.59,0,0,0,243,3.8a102,102,0,0,1-32.6,12.4,51.29,51.29,0,0,0-88.7,35.1A56.68,56.68,0,0,0,123,63,145.61,145.61,0,0,1,17.3,9.4,51.48,51.48,0,0,0,33.2,77.9,51.87,51.87,0,0,1,10,71.5v.7a51.39,51.39,0,0,0,41.1,50.3,51.58,51.58,0,0,1-23.1.9A51.28,51.28,0,0,0,75.9,159a102.85,102.85,0,0,1-63.7,22A98.68,98.68,0,0,1,0,180.3a145.86,145.86,0,0,0,78.5,22.9"/>
    </symbol>
    <symbol id="logo-twitter-box" viewBox="0 0 100 100">
        <use xlink:href="#logo-twitter"
            width="64" height="64" x="18" y="18" />
    </symbol>


    <symbol id="logo-instagram" viewBox="0 0 512 512">
        <rect class="area" width="512" height="512" />
        <path fill="currentColor"
            d="M256,49.5c67.3,0,75.2,0.3,101.8,1.5c24.6,1.1,37.9,5.2,46.8,8.7c11.8,4.6,20.2,10,29,18.8c8.8,8.8,14.3,17.2,18.8,29c3.4,8.9,7.6,22.2,8.7,46.8c1.2,26.6,1.5,34.5,1.5,101.8s-0.3,75.2-1.5,101.8c-1.1,24.6-5.2,37.9-8.7,46.8c-4.6,11.8-10,20.2-18.8,29c-8.8,8.8-17.2,14.3-29,18.8c-8.9,3.4-22.2,7.6-46.8,8.7c-26.6,1.2-34.5,1.5-101.8,1.5s-75.2-0.3-101.8-1.5c-24.6-1.1-37.9-5.2-46.8-8.7c-11.8-4.6-20.2-10-29-18.8c-8.8-8.8-14.3-17.2-18.8-29c-3.4-8.9-7.6-22.2-8.7-46.8c-1.2-26.6-1.5-34.5-1.5-101.8s0.3-75.2,1.5-101.8c1.1-24.6,5.2-37.9,8.7-46.8c4.6-11.8,10-20.2,18.8-29c8.8-8.8,17.2-14.3,29-18.8c8.9-3.4,22.2-7.6,46.8-8.7C180.8,49.7,188.7,49.5,256,49.5 M256,4.1c-68.4,0-77,0.3-103.9,1.5C125.3,6.8,107,11.1,91,17.3c-16.6,6.4-30.6,15.1-44.6,29.1c-14,14-22.6,28.1-29.1,44.6c-6.2,16-10.5,34.3-11.7,61.2C4.4,179,4.1,187.6,4.1,256c0,68.4,0.3,77,1.5,103.9c1.2,26.8,5.5,45.1,11.7,61.2c6.4,16.6,15.1,30.6,29.1,44.6c14,14,28.1,22.6,44.6,29.1c16,6.2,34.3,10.5,61.2,11.7c26.9,1.2,35.4,1.5,103.9,1.5s77-0.3,103.9-1.5c26.8-1.2,45.1-5.5,61.2-11.7c16.6-6.4,30.6-15.1,44.6-29.1c14-14,22.6-28.1,29.1-44.6c6.2-16,10.5-34.3,11.7-61.2c1.2-26.9,1.5-35.4,1.5-103.9s-0.3-77-1.5-103.9c-1.2-26.8-5.5-45.1-11.7-61.2c-6.4-16.6-15.1-30.6-29.1-44.6c-14-14-28.1-22.6-44.6-29.1c-16-6.2-34.3-10.5-61.2-11.7C333,4.4,324.4,4.1,256,4.1L256,4.1z"/>
        <path fill="currentColor"
            d="M256,126.6c-71.4,0-129.4,57.9-129.4,129.4S184.6,385.4,256,385.4S385.4,327.4,385.4,256S327.4,126.6,256,126.6z M256,340c-46.4,0-84-37.6-84-84s37.6-84,84-84c46.4,0,84,37.6,84,84S302.4,340,256,340z"/>
        <circle fill="currentColor"
            cx="390.5" cy="121.5" r="30.2"/>
    </symbol>
    <symbol id="logo-instagram-box" viewBox="0 0 100 100">
        <use xlink:href="#logo-instagram"
            width="68" height="68" x="16" y="16" />
    </symbol>


    <symbol id="logo-ok" viewBox="0 0 100 100">
        <rect class="area" width="100" height="100" />
        <path fill="currentColor"
            d="M50,15A18,18,0,1,0,68,33,18.05,18.05,0,0,0,50,15Zm0,25.6a7.5,7.5,0,1,1,7.5-7.5A7.55,7.55,0,0,1,50,40.6Z"/>
        <path fill="currentColor"
            d="M57.3,65.8a34.24,34.24,0,0,0,10.5-4.3,5.3,5.3,0,1,0-5.6-9,22.94,22.94,0,0,1-24.2,0,5.3,5.3,0,1,0-5.6,9,34.24,34.24,0,0,0,10.5,4.3L32.6,75.9a5.25,5.25,0,0,0,0,7.5,5.3,5.3,0,0,0,3.7,1.5A5.14,5.14,0,0,0,40,83.4l9.9-9.9,9.9,9.9a5.3,5.3,0,1,0,7.5-7.5Z"/>
    </symbol>
    <symbol id="logo-ok-box" viewBox="0 0 100 100">
        <use xlink:href="#logo-ok"
            width="100" height="100" />
    </symbol>


    <symbol id="doc-icon" viewBox="0 0 100 141">
        <path d="M99.7,30.7L69.3,0.3C69.1,0.1,68.8,0,68.5,0H1.1C0.5,0,0,0.5,0,1.1v138.7c0,0.6,0.5,1.1,1.1,1.1c0,0,0,0,0,0h97.7c0.6,0,1.1-0.5,1.1-1.1c0,0,0,0,0,0V31.5C100,31.2,99.9,30.9,99.7,30.7z M69.7,30.3V3.9l26.5,26.5H69.7z"/>
    </symbol>
    <symbol id="pin" viewBox="0 0 15 22">
        <path d="M15,7.5C15,3.4,11.6,0,7.5,0S0,3.4,0,7.5c0,1.4,0.4,2.8,1.1,3.9l0,0L7.5,22l6.4-10.6l0,0C14.6,10.3,15,8.9,15,7.5z
         M7.5,10.5c-1.7,0-3-1.3-3-3c0-1.7,1.3-3,3-3s3,1.3,3,3C10.5,9.2,9.2,10.5,7.5,10.5z"/>
    </symbol>

    <rect class="underlay"
        width="50" height="50" x="10" y="10" />
    <use xlink:href="#logo-vk"
        width="50" height="50" x="10" y="10" />
    <rect class="underlay"
        width="50" height="50" x="10" y="70" />
    <use xlink:href="#logo-vk-box"
        width="50" height="50" x="10" y="70" />


    <rect class="underlay"
        width="50" height="50" x="70" y="10" />
    <use xlink:href="#logo-fb"
        width="50" height="50" x="70" y="10" />
    <rect class="underlay"
        width="50" height="50" x="70" y="70" />
    <use xlink:href="#logo-fb-box"
        width="50" height="50" x="70" y="70" />


    <rect class="underlay"
        width="50" height="50" x="130" y="10" />
    <use xlink:href="#logo-twitter"
        width="50" height="50" x="130" y="10" />
    <rect class="underlay"
        width="50" height="50" x="130" y="70" />
    <use xlink:href="#logo-twitter-box"
        width="50" height="50" x="130" y="70" />


    <rect class="underlay"
        width="50" height="50" x="190" y="10" />
    <use xlink:href="#logo-instagram"
        width="50" height="50" x="190" y="10" />
    <rect class="underlay"
        width="50" height="50" x="190" y="70" />
    <use xlink:href="#logo-instagram-box"
        width="50" height="50" x="190" y="70" />


    <rect class="underlay"
        width="50" height="50" x="250" y="10" />
    <use xlink:href="#logo-ok"
        width="50" height="50" x="250" y="10" />
    <rect class="underlay"
        width="50" height="50" x="250" y="70" />
    <use xlink:href="#logo-ok-box"
        width="50" height="50" x="250" y="70" />


    <rect class="underlay"
        width="70" height="97" x="20" y="140" />
    <use xlink:href="#logo-studio"
        width="70" height="97" x="20" y="140" />

</svg>
