<?xml version="1.0" standalone="no"?>
<!DOCTYPE svg PUBLIC "-//W3C//DTD SVG 20010904//EN"
 "http://www.w3.org/TR/2001/REC-SVG-20010904/DTD/svg10.dtd">
<svg version="1.0" xmlns="http://www.w3.org/2000/svg"
 width="180.000000pt" height="180.000000pt" viewBox="0 0 180.000000 180.000000"
 preserveAspectRatio="xMidYMid meet">
<metadata>
Created by potrace 1.11, written by Peter Selinger 2001-2013
</metadata>
<g transform="translate(0.000000,180.000000) scale(0.100000,-0.100000)"
fill="#000000" stroke="none">
<path d="M0 900 l0 -900 900 0 900 0 0 900 0 900 -900 0 -900 0 0 -900z m940
655 c0 -3 -11 -28 -25 -54 -58 -115 -208 -191 -378 -191 l-62 0 -95 -352 c-77
-284 -98 -353 -113 -356 -9 -2 -38 6 -62 18 -94 45 -128 176 -87 325 11 39 41
151 67 251 l48 180 65 35 c35 19 92 60 126 91 l61 57 228 1 c125 0 227 -2 227
-5z m615 -350 c46 -18 94 -63 117 -109 37 -71 30 -141 -36 -381 -64 -233 -87
-283 -158 -354 -58 -58 -193 -135 -185 -105 3 11 25 89 48 174 23 85 44 161
47 169 4 11 -5 12 -46 6 -113 -15 -221 35 -269 125 -21 39 -24 55 -21 125 5
99 30 154 106 236 107 116 275 165 397 114z m-859 -2 c-92 -328 -96 -362 -42
-383 45 -17 125 20 151 69 7 14 30 89 51 166 20 77 40 143 44 148 13 15 97
-61 119 -107 35 -75 29 -139 -35 -374 -31 -114 -66 -227 -77 -252 -29 -61
-129 -158 -204 -198 -35 -18 -63 -28 -63 -23 0 6 20 84 45 174 25 90 45 169
45 176 0 8 -16 9 -53 5 -107 -13 -212 40 -260 130 -34 65 -31 163 9 246 38 82
110 156 194 202 76 42 83 44 76 21z"/>
<path d="M432 1485 c-29 -30 -82 -68 -117 -86 l-64 -34 -31 -120 c-17 -66 -45
-167 -62 -225 -53 -183 -48 -289 16 -354 30 -29 82 -54 92 -43 2 2 44 154 94
338 50 184 93 342 96 352 4 14 17 17 78 17 123 0 229 37 307 107 35 32 69 80
69 98 0 3 -96 4 -212 4 l-213 -1 -53 -53z m448 25 c0 -23 -82 -92 -146 -122
-61 -28 -82 -33 -179 -38 l-109 -5 -95 -352 c-89 -330 -97 -352 -116 -347 -30
9 -66 45 -81 81 -27 64 -17 145 46 378 33 121 60 225 60 232 0 6 28 27 62 45
34 18 87 56 118 85 l55 52 193 1 c116 0 192 -4 192 -10z"/>
<path d="M1347 1190 c-276 -88 -380 -431 -164 -542 51 -26 125 -33 183 -19 25
7 48 11 49 9 1 -2 -20 -81 -46 -177 -27 -96 -47 -177 -44 -179 7 -7 94 47 134
83 68 62 96 125 160 364 34 124 61 238 61 255 0 63 -21 110 -69 157 -72 70
-153 85 -264 49z m211 -29 c53 -27 91 -84 98 -148 5 -42 -4 -88 -55 -279 -35
-126 -73 -247 -86 -269 -13 -22 -43 -58 -67 -81 -45 -42 -98 -79 -98 -68 0 4
21 83 46 176 26 93 45 171 42 173 -2 2 -26 -3 -53 -11 -109 -34 -228 4 -274
87 -86 152 55 387 263 440 49 13 139 3 184 -20z"/>
<path d="M1328 1030 c-54 -29 -90 -81 -96 -140 -4 -44 -2 -52 26 -80 69 -69
200 -19 247 94 44 106 -66 184 -177 126z m139 -15 c50 -35 29 -138 -37 -185
-48 -34 -130 -40 -159 -11 -45 45 -17 138 58 188 40 27 106 31 138 8z"/>
<path d="M1336 991 c-71 -47 -89 -143 -33 -169 25 -12 35 -12 73 3 76 29 121
104 93 154 -19 35 -90 41 -133 12z"/>
<path d="M616 1158 c-58 -30 -138 -115 -169 -178 -56 -118 -46 -216 33 -292
61 -59 131 -78 218 -60 31 6 57 10 60 8 2 -2 -17 -80 -42 -173 -25 -93 -46
-173 -46 -177 0 -4 23 5 50 20 59 32 139 114 168 170 34 68 134 451 133 515 0
68 -25 124 -72 164 -39 33 -37 37 -79 -125 -18 -69 -42 -139 -54 -157 -58 -89
-202 -99 -220 -15 -5 22 28 166 70 305 7 22 -2 21 -50 -5z m-9 -146 c-19 -71
-32 -141 -30 -156 13 -68 105 -96 183 -56 61 31 85 73 124 214 20 71 37 131
39 133 10 9 67 -71 77 -108 14 -52 12 -67 -56 -318 -59 -218 -76 -259 -126
-316 -27 -31 -108 -95 -121 -95 -2 0 18 80 44 177 27 97 47 178 46 179 -2 2
-25 -3 -52 -11 -172 -52 -317 46 -302 205 6 72 34 136 83 190 40 45 114 103
121 96 2 -2 -11 -62 -30 -134z"/>
</g>
</svg>
